<svg width="22" height="18" viewBox="0 0 22 18" fill="none" xmlns="http://www.w3.org/2000/svg">
<path d="M13.5 10.0834C13.5 11.4641 12.3807 12.5834 11 12.5834V14.0834C13.2091 14.0834 15 12.2926 15 10.0834H13.5ZM11 12.5834C9.61929 12.5834 8.5 11.4641 8.5 10.0834H7C7 12.2926 8.79086 14.0834 11 14.0834V12.5834ZM8.5 10.0834C8.5 8.7027 9.61929 7.58342 11 7.58342V6.08342C8.79086 6.08342 7 7.87428 7 10.0834H8.5ZM11 7.58342C12.3807 7.58342 13.5 8.7027 13.5 10.0834H15C15 7.87428 13.2091 6.08342 11 6.08342V7.58342ZM20 5.75008V14.4167H21.5V5.75008H20ZM18.5833 15.8334H3.41667V17.3334H18.5833V15.8334ZM2 14.4167V5.75008H0.5V14.4167H2ZM3.41667 4.33341H6.125V2.83341H3.41667V4.33341ZM15.875 4.33341H18.5833V2.83341H15.875V4.33341ZM8.29167 2.16675H13.7083V0.666748H8.29167V2.16675ZM14.0417 2.50008C14.0417 3.5126 14.8625 4.33341 15.875 4.33341V2.83341C15.6909 2.83341 15.5417 2.68418 15.5417 2.50008H14.0417ZM6.125 4.33341C7.13752 4.33341 7.95833 3.5126 7.95833 2.50008H6.45833C6.45833 2.68418 6.30909 2.83341 6.125 2.83341V4.33341ZM15.5417 2.50008C15.5417 1.48756 14.7209 0.666748 13.7083 0.666748V2.16675C13.8924 2.16675 14.0417 2.31599 14.0417 2.50008H15.5417ZM7.95833 2.50008C7.95833 2.31599 8.10757 2.16675 8.29167 2.16675V0.666748C7.27914 0.666748 6.45833 1.48756 6.45833 2.50008H7.95833ZM3.41667 15.8334C2.63426 15.8334 2 15.1992 2 14.4167H0.5C0.5 16.0276 1.80584 17.3334 3.41667 17.3334V15.8334ZM20 14.4167C20 15.1992 19.3657 15.8334 18.5833 15.8334V17.3334C20.1942 17.3334 21.5 16.0276 21.5 14.4167H20ZM21.5 5.75008C21.5 4.13925 20.1942 2.83341 18.5833 2.83341V4.33341C19.3657 4.33341 20 4.96768 20 5.75008H21.5ZM2 5.75008C2 4.96768 2.63426 4.33341 3.41667 4.33341V2.83341C1.80584 2.83341 0.5 4.13925 0.5 5.75008H2Z" fill="#595959"/>
</svg>
