<svg width="14" height="12" viewBox="0 0 14 12" fill="none" xmlns="http://www.w3.org/2000/svg">
<path d="M8.84267 6.9431C8.84267 7.81991 8.13188 8.53069 7.25508 8.53069V9.48325C8.65797 9.48325 9.79523 8.34599 9.79523 6.9431H8.84267ZM7.25508 8.53069C6.37828 8.53069 5.66749 7.81991 5.66749 6.9431H4.71494C4.71494 8.34599 5.8522 9.48325 7.25508 9.48325V8.53069ZM5.66749 6.9431C5.66749 6.0663 6.37828 5.35551 7.25508 5.35551V4.40296C5.8522 4.40296 4.71494 5.54022 4.71494 6.9431H5.66749ZM7.25508 5.35551C8.13188 5.35551 8.84267 6.0663 8.84267 6.9431H9.79523C9.79523 5.54022 8.65797 4.40296 7.25508 4.40296V5.35551ZM12.9704 4.19128V9.69493H13.923V4.19128H12.9704ZM12.0708 10.5946H2.43939V11.5471H12.0708V10.5946ZM1.53975 9.69493V4.19128H0.587199V9.69493H1.53975ZM2.43939 3.29164H4.15928V2.33909H2.43939V3.29164ZM10.3509 3.29164H12.0708V2.33909H10.3509V3.29164ZM5.53519 1.91573H8.97497V0.963176H5.53519V1.91573ZM9.18665 2.12741C9.18665 2.7704 9.7079 3.29164 10.3509 3.29164V2.33909C10.234 2.33909 10.1392 2.24432 10.1392 2.12741H9.18665ZM4.15928 3.29164C4.80227 3.29164 5.32351 2.7704 5.32351 2.12741H4.37096C4.37096 2.24432 4.27619 2.33909 4.15928 2.33909V3.29164ZM10.1392 2.12741C10.1392 1.48442 9.61796 0.963176 8.97497 0.963176V1.91573C9.09188 1.91573 9.18665 2.0105 9.18665 2.12741H10.1392ZM5.32351 2.12741C5.32351 2.0105 5.41828 1.91573 5.53519 1.91573V0.963176C4.8922 0.963176 4.37096 1.48442 4.37096 2.12741H5.32351ZM2.43939 10.5946C1.94253 10.5946 1.53975 10.1918 1.53975 9.69493H0.587199C0.587199 10.7179 1.41645 11.5471 2.43939 11.5471V10.5946ZM12.9704 9.69493C12.9704 10.1918 12.5676 10.5946 12.0708 10.5946V11.5471C13.0937 11.5471 13.923 10.7179 13.923 9.69493H12.9704ZM13.923 4.19128C13.923 3.16834 13.0937 2.33909 12.0708 2.33909V3.29164C12.5676 3.29164 12.9704 3.69442 12.9704 4.19128H13.923ZM1.53975 4.19128C1.53975 3.69442 1.94253 3.29164 2.43939 3.29164V2.33909C1.41645 2.33909 0.587199 3.16834 0.587199 4.19128H1.53975Z" fill="#595959"/>
</svg>
