<svg width="23" height="16" viewBox="0 0 23 16" fill="none" xmlns="http://www.w3.org/2000/svg">
<path d="M5.22616 10.1845C4.67481 10.1845 4.22785 10.6315 4.22785 11.1828C4.22785 11.7342 4.67481 12.1812 5.22616 12.1812V10.1845ZM9.10851 12.1812C9.65987 12.1812 10.1068 11.7342 10.1068 11.1828C10.1068 10.6315 9.65987 10.1845 9.10851 10.1845V12.1812ZM4.11692 1.99832H19.6463V0.0016818H4.11692V1.99832ZM20.8665 3.26285V12.3143H22.8631V3.26285H20.8665ZM19.6463 13.5788H4.11692V15.5754H19.6463V13.5788ZM2.89676 12.3143V3.26285H0.900119V12.3143H2.89676ZM4.11692 13.5788C3.46159 13.5788 2.89676 13.0314 2.89676 12.3143H0.900119C0.900119 14.0966 2.32179 15.5754 4.11692 15.5754V13.5788ZM20.8665 12.3143C20.8665 13.0314 20.3017 13.5788 19.6463 13.5788V15.5754C21.4415 15.5754 22.8631 14.0966 22.8631 12.3143H20.8665ZM19.6463 1.99832C20.3017 1.99832 20.8665 2.54574 20.8665 3.26285H22.8631C22.8631 1.48049 21.4415 0.0016818 19.6463 0.0016818V1.99832ZM4.11692 0.0016818C2.32179 0.0016818 0.900119 1.48049 0.900119 3.26285H2.89676C2.89676 2.54574 3.46159 1.99832 4.11692 1.99832V0.0016818ZM1.89844 6.52403H21.8648V4.52739H1.89844V6.52403ZM5.22616 12.1812H9.10851V10.1845H5.22616V12.1812Z" fill="#2767A5"/>
</svg>
