<svg width="29" height="27" viewBox="0 0 29 27" fill="none" xmlns="http://www.w3.org/2000/svg">
<path d="M22.375 20.375C20.8562 20.375 19.625 21.6062 19.625 23.125C19.625 24.6438 20.8562 25.875 22.375 25.875C23.8938 25.875 25.125 24.6438 25.125 23.125C25.125 21.6062 23.8938 20.375 22.375 20.375ZM22.375 20.375H9.13003C8.44576 20.375 7.86562 19.8718 7.76885 19.1945L7.34821 16.25M1.75 1.125H5.1875L5.58036 3.875M5.58036 3.875H5.875H27.875L23.75 16.25H7.9375H7.34821M5.58036 3.875L7.34821 16.25M14.125 23.125C14.125 24.6438 12.8938 25.875 11.375 25.875C9.85622 25.875 8.625 24.6438 8.625 23.125C8.625 21.6062 9.85622 20.375 11.375 20.375C12.8938 20.375 14.125 21.6062 14.125 23.125Z" stroke="white" stroke-width="2" stroke-linecap="round" stroke-linejoin="round"/>
</svg>
