<svg width="13" height="12" viewBox="0 0 13 12" fill="none" xmlns="http://www.w3.org/2000/svg">
<path d="M9.33894 9.18706C8.72489 9.18706 8.22711 9.67966 8.22711 10.2873C8.22711 10.895 8.72489 11.3876 9.33894 11.3876C9.95298 11.3876 10.4508 10.895 10.4508 10.2873C10.4508 9.67966 9.95298 9.18706 9.33894 9.18706ZM9.33894 9.18706H3.98399C3.70734 9.18706 3.47279 8.98576 3.43367 8.71474L3.2636 7.5367M1.00024 1.48535H2.39003L2.54886 2.5856M2.54886 2.5856H2.66798H11.5626L9.89485 7.5367H3.50185H3.2636M2.54886 2.5856L3.2636 7.5367M6.00346 10.2873C6.00346 10.895 5.50568 11.3876 4.89164 11.3876C4.27759 11.3876 3.77981 10.895 3.77981 10.2873C3.77981 9.67966 4.27759 9.18706 4.89164 9.18706C5.50568 9.18706 6.00346 9.67966 6.00346 10.2873Z" stroke="black" stroke-linecap="round" stroke-linejoin="round"/>
</svg>
