<svg width="22" height="21" viewBox="0 0 22 21" fill="none" xmlns="http://www.w3.org/2000/svg">
<path d="M16.5096 15.6433C15.4031 15.6433 14.506 16.5491 14.506 17.6663C14.506 18.7836 15.4031 19.6893 16.5096 19.6893C17.6162 19.6893 18.5133 18.7836 18.5133 17.6663C18.5133 16.5491 17.6162 15.6433 16.5096 15.6433ZM16.5096 15.6433H6.85946C6.3609 15.6433 5.93822 15.2732 5.86771 14.7749L5.56124 12.6089M1.48242 1.48242H3.98696L4.27319 3.50541M4.27319 3.50541H4.48787H20.5169L17.5115 12.6089H5.99059H5.56124M4.27319 3.50541L5.56124 12.6089M10.4988 17.6663C10.4988 18.7836 9.6017 19.6893 8.49513 19.6893C7.38855 19.6893 6.4915 18.7836 6.4915 17.6663C6.4915 16.5491 7.38855 15.6433 8.49513 15.6433C9.6017 15.6433 10.4988 16.5491 10.4988 17.6663Z" stroke="#2767A5" stroke-width="2" stroke-linecap="round" stroke-linejoin="round"/>
</svg>
