<svg width="15" height="17" viewBox="0 0 15 17" fill="none" xmlns="http://www.w3.org/2000/svg">
<path fill-rule="evenodd" clip-rule="evenodd" d="M1.96614 3.51575C1.96614 3.38211 2.02417 3.19638 2.2475 2.96261C2.47439 2.72511 2.83856 2.47687 3.34638 2.25203C4.3599 1.8033 5.81247 1.50675 7.45658 1.50675C9.10069 1.50675 10.5533 1.8033 11.5668 2.25203C12.0746 2.47687 12.4388 2.72511 12.6657 2.96261C12.889 3.19638 12.947 3.38211 12.947 3.51575C12.947 3.64939 12.889 3.83512 12.6657 4.06889C12.4388 4.30639 12.0746 4.55464 11.5668 4.77947C10.5533 5.2282 9.10069 5.52475 7.45658 5.52475C5.81247 5.52475 4.3599 5.2282 3.34638 4.77947C2.83856 4.55464 2.47439 4.30639 2.2475 4.06889C2.02417 3.83512 1.96614 3.64939 1.96614 3.51575ZM0.46875 3.51575C0.46875 2.88658 0.759883 2.34561 1.16799 1.91842C1.57255 1.49494 2.12207 1.14794 2.74332 0.872881C3.98791 0.321835 5.65491 0 7.45658 0C9.25825 0 10.9252 0.321835 12.1699 0.872881C12.7911 1.14794 13.3406 1.49494 13.7451 1.91842C14.1533 2.34561 14.4444 2.88658 14.4444 3.51575V12.5563C14.4444 13.1855 14.1533 13.7264 13.7451 14.1536C13.3406 14.5771 12.7911 14.9241 12.1699 15.1991C10.9252 15.7502 9.25825 16.072 7.45658 16.072C5.65491 16.072 3.98791 15.7502 2.74332 15.1991C2.12207 14.9241 1.57255 14.5771 1.16799 14.1536C0.759883 13.7264 0.46875 13.1855 0.46875 12.5563V3.51575ZM1.96614 8.036V5.75024C2.20687 5.90076 2.46806 6.03675 2.74332 6.15862C3.98791 6.70967 5.65491 7.0315 7.45658 7.0315C9.25825 7.0315 10.9252 6.70967 12.1699 6.15862C12.4451 6.03675 12.7063 5.90076 12.947 5.75024V8.036C12.947 8.16964 12.889 8.35538 12.6657 8.58914C12.4388 8.82665 12.0746 9.07489 11.5668 9.29973C10.5533 9.74846 9.10069 10.045 7.45658 10.045C5.81247 10.045 4.3599 9.74846 3.34638 9.29973C2.83856 9.07489 2.47439 8.82665 2.2475 8.58914C2.02417 8.35538 1.96614 8.16964 1.96614 8.036ZM1.96614 10.2705V12.5563C1.96614 12.6899 2.02417 12.8756 2.2475 13.1094C2.47439 13.3469 2.83856 13.5951 3.34638 13.82C4.3599 14.2687 5.81247 14.5653 7.45658 14.5653C9.10069 14.5653 10.5533 14.2687 11.5668 13.82C12.0746 13.5951 12.4388 13.3469 12.6657 13.1094C12.889 12.8756 12.947 12.6899 12.947 12.5563V10.2705C12.7063 10.421 12.4451 10.557 12.1699 10.6788C10.9252 11.2299 9.25825 11.5518 7.45658 11.5518C5.65491 11.5518 3.98791 11.2299 2.74332 10.6788C2.46806 10.557 2.20687 10.421 1.96614 10.2705Z" fill="#595959"/>
</svg>
