<svg width="23" height="23" viewBox="0 0 23 23" fill="none" xmlns="http://www.w3.org/2000/svg">
<path d="M17.1195 11.2225L17.6499 11.7528C17.9428 11.4599 17.9428 10.9851 17.6499 10.6922L17.1195 11.2225ZM5.73951 10.4725C5.3253 10.4725 4.98951 10.8083 4.98951 11.2225C4.98951 11.6367 5.3253 11.9725 5.73951 11.9725V10.4725ZM12.0372 15.2442C11.7443 15.5371 11.7443 16.0119 12.0372 16.3048C12.3301 16.5977 12.805 16.5977 13.0979 16.3048L12.0372 15.2442ZM13.0979 6.14015C12.805 5.84726 12.3301 5.84726 12.0372 6.14015C11.7443 6.43305 11.7443 6.90792 12.0372 7.20081L13.0979 6.14015ZM17.1195 10.4725L5.73951 10.4725V11.9725L17.1195 11.9725V10.4725ZM13.0979 16.3048L17.6499 11.7528L16.5892 10.6922L12.0372 15.2442L13.0979 16.3048ZM17.6499 10.6922L13.0979 6.14015L12.0372 7.20081L16.5892 11.7528L17.6499 10.6922ZM20.9216 11.2225C20.9216 16.4648 16.6718 20.7145 11.4295 20.7145V22.2145C17.5003 22.2145 22.4216 17.2932 22.4216 11.2225H20.9216ZM11.4295 20.7145C6.18722 20.7145 1.9375 16.4648 1.9375 11.2225H0.4375C0.4375 17.2932 5.3588 22.2145 11.4295 22.2145V20.7145ZM1.9375 11.2225C1.9375 5.98019 6.18722 1.73047 11.4295 1.73047V0.230469C5.3588 0.230469 0.4375 5.15177 0.4375 11.2225H1.9375ZM11.4295 1.73047C16.6718 1.73047 20.9216 5.98019 20.9216 11.2225H22.4216C22.4216 5.15177 17.5003 0.230469 11.4295 0.230469V1.73047Z" fill="#595959"/>
</svg>
