<svg width="15" height="18" viewBox="0 0 15 18" fill="none" xmlns="http://www.w3.org/2000/svg">
<path d="M0.867188 1V0.301217C0.48126 0.301217 0.168405 0.614073 0.168405 1L0.867188 1ZM13.4453 17.072V17.7708C13.8312 17.7708 14.1441 17.4579 14.1441 17.072H13.4453ZM0.867188 17.072H0.168405C0.168405 17.4579 0.48126 17.7708 0.867188 17.7708L0.867188 17.072ZM8.9531 1L9.44569 0.504358C9.31477 0.374246 9.13768 0.301217 8.9531 0.301217V1ZM13.4453 5.46445H14.1441C14.1441 5.27837 14.0698 5.09997 13.9379 4.96881L13.4453 5.46445ZM3.56249 12.8017C3.17657 12.8017 2.86371 13.1145 2.86371 13.5005C2.86371 13.8864 3.17657 14.1992 3.56249 14.1992V12.8017ZM10.75 14.1992C11.1359 14.1992 11.4488 13.8864 11.4488 13.5005C11.4488 13.1145 11.1359 12.8017 10.75 12.8017V14.1992ZM3.56249 9.23011C3.17657 9.23011 2.86371 9.54297 2.86371 9.92889C2.86371 10.3148 3.17657 10.6277 3.56249 10.6277V9.23011ZM8.9531 10.6277C9.33903 10.6277 9.65189 10.3148 9.65189 9.92889C9.65189 9.54297 9.33903 9.23011 8.9531 9.23011V10.6277ZM13.4453 16.3732H0.867188V17.7708H13.4453V16.3732ZM1.56597 17.072V1H0.168405V17.072H1.56597ZM0.867188 1.69878H8.9531V0.301217H0.867188V1.69878ZM12.7465 5.46445V17.072H14.1441V5.46445H12.7465ZM8.46052 1.49564L12.9527 5.96009L13.9379 4.96881L9.44569 0.504358L8.46052 1.49564ZM7.35589 1V4.57156H8.75345V1H7.35589ZM9.85154 7.05612H13.4453V5.65855H9.85154V7.05612ZM7.35589 4.57156C7.35589 5.94782 8.47731 7.05612 9.85154 7.05612V5.65855C9.241 5.65855 8.75345 5.16782 8.75345 4.57156H7.35589ZM3.56249 14.1992H10.75V12.8017H3.56249V14.1992ZM3.56249 10.6277H8.9531V9.23011H3.56249V10.6277Z" fill="#595959"/>
</svg>
