<svg width="14" height="14" viewBox="0 0 14 14" fill="none" xmlns="http://www.w3.org/2000/svg">
<path d="M9.60351 5.10355C9.79877 4.90829 9.79877 4.59171 9.60351 4.39645C9.40824 4.20118 9.09166 4.20118 8.8964 4.39645L9.60351 5.10355ZM4.3964 8.89644C4.20114 9.0917 4.20114 9.40829 4.3964 9.60355C4.59167 9.79881 4.90825 9.79881 5.10351 9.60355L4.3964 8.89644ZM5.1036 4.39645C4.90834 4.20118 4.59176 4.20118 4.3965 4.39645C4.20123 4.59171 4.20123 4.90829 4.3965 5.10355L5.1036 4.39645ZM8.89649 9.60355C9.09175 9.79881 9.40833 9.79881 9.6036 9.60355C9.79886 9.40829 9.79886 9.0917 9.6036 8.89644L8.89649 9.60355ZM8.8964 4.39645L4.3964 8.89644L5.10351 9.60355L9.60351 5.10355L8.8964 4.39645ZM4.3965 5.10355L8.89649 9.60355L9.6036 8.89644L5.1036 4.39645L4.3965 5.10355ZM4 1.5H10V0.5H4V1.5ZM12.5 4V10H13.5V4H12.5ZM10 12.5H4V13.5H10V12.5ZM1.5 10V4H0.5V10H1.5ZM4 12.5C2.61929 12.5 1.5 11.3807 1.5 10H0.5C0.5 11.933 2.067 13.5 4 13.5V12.5ZM12.5 10C12.5 11.3807 11.3807 12.5 10 12.5V13.5C11.933 13.5 13.5 11.933 13.5 10H12.5ZM10 1.5C11.3807 1.5 12.5 2.61929 12.5 4H13.5C13.5 2.067 11.933 0.5 10 0.5V1.5ZM4 0.5C2.067 0.5 0.5 2.067 0.5 4H1.5C1.5 2.61929 2.61929 1.5 4 1.5V0.5Z" fill="white"/>
</svg>
