<svg width="23" height="23" viewBox="0 0 23 23" fill="none" xmlns="http://www.w3.org/2000/svg">
<path d="M17.0141 11.6561L17.5444 12.1864C17.8373 11.8935 17.8373 11.4187 17.5444 11.1258L17.0141 11.6561ZM5.63404 10.9061C5.21983 10.9061 4.88404 11.2419 4.88404 11.6561C4.88404 12.0703 5.21983 12.4061 5.63404 12.4061V10.9061ZM11.9317 15.6778C11.6388 15.9707 11.6388 16.4455 11.9317 16.7384C12.2246 17.0313 12.6995 17.0313 12.9924 16.7384L11.9317 15.6778ZM12.9924 6.57375C12.6995 6.28085 12.2246 6.28085 11.9317 6.57375C11.6388 6.86664 11.6388 7.34151 11.9317 7.63441L12.9924 6.57375ZM17.0141 10.9061L5.63404 10.9061V12.4061L17.0141 12.4061V10.9061ZM12.9924 16.7384L17.5444 12.1864L16.4837 11.1258L11.9317 15.6778L12.9924 16.7384ZM17.5444 11.1258L12.9924 6.57375L11.9317 7.63441L16.4837 12.1864L17.5444 11.1258ZM20.8161 11.6561C20.8161 16.8984 16.5664 21.1481 11.3241 21.1481V22.6481C17.3948 22.6481 22.3161 17.7268 22.3161 11.6561H20.8161ZM11.3241 21.1481C6.08176 21.1481 1.83203 16.8984 1.83203 11.6561H0.332031C0.332031 17.7268 5.25333 22.6481 11.3241 22.6481V21.1481ZM1.83203 11.6561C1.83203 6.41379 6.08176 2.16406 11.3241 2.16406V0.664063C5.25333 0.664063 0.332031 5.58536 0.332031 11.6561H1.83203ZM11.3241 2.16406C16.5664 2.16406 20.8161 6.41379 20.8161 11.6561H22.3161C22.3161 5.58536 17.3948 0.664063 11.3241 0.664063V2.16406Z" fill="white"/>
</svg>
