<svg width="17" height="17" viewBox="0 0 17 17" fill="none" xmlns="http://www.w3.org/2000/svg">
<path d="M9.86939 1.77859L11.2627 4.56526C11.4527 4.95318 11.9594 5.32526 12.3869 5.39651L14.9123 5.81609C16.5273 6.08526 16.9073 7.25693 15.7436 8.41276L13.7802 10.3761C13.4477 10.7086 13.2656 11.3498 13.3686 11.809L13.9306 14.2394C14.374 16.1632 13.3527 16.9073 11.6506 15.9019L9.28356 14.5007C8.85606 14.2473 8.15147 14.2473 7.71606 14.5007L5.34897 15.9019C3.65481 16.9073 2.62564 16.1553 3.06897 14.2394L3.63106 11.809C3.73397 11.3498 3.55189 10.7086 3.21939 10.3761L1.25606 8.41276C0.100223 7.25693 0.472306 6.08526 2.08731 5.81609L4.61272 5.39651C5.03231 5.32526 5.53897 4.95318 5.72897 4.56526L7.12231 1.77859C7.88231 0.26651 9.1173 0.26651 9.86939 1.77859Z" fill="#FFAE28" stroke="#FFAE28" stroke-linecap="round" stroke-linejoin="round"/>
</svg>
