<svg width="19" height="17" viewBox="0 0 19 17" fill="none" xmlns="http://www.w3.org/2000/svg">
<path d="M9.87533 14.3949C9.62616 14.269 9.33197 14.269 9.08279 14.3949L4.74492 16.587C4.07432 16.9259 3.31534 16.3213 3.49576 15.5919L4.53558 11.3881C4.60516 11.1068 4.53156 10.8093 4.33884 10.5928L0.992502 6.83492C0.509284 6.29227 0.856128 5.431 1.58056 5.37468L6.27497 5.0097C6.59525 4.9848 6.8764 4.78709 7.00816 4.49412L8.67777 0.781703C8.98852 0.0907296 9.9696 0.0907274 10.2804 0.781701L11.95 4.49412C12.0817 4.78709 12.3629 4.9848 12.6832 5.0097L17.3776 5.37467C18.102 5.431 18.4488 6.29227 17.9656 6.83492L14.6193 10.5928C14.4266 10.8093 14.353 11.1068 14.4225 11.3881L15.4624 15.5919C15.6428 16.3213 14.8838 16.9259 14.2132 16.587L9.87533 14.3949Z" fill="#F1BA17"/>
</svg>
