<svg width="18" height="18" viewBox="0 0 18 18" fill="none" xmlns="http://www.w3.org/2000/svg">
<path d="M12.707 6.70711C13.0976 6.31658 13.0976 5.68342 12.707 5.29289C12.3165 4.90237 11.6834 4.90237 11.2928 5.29289L12.707 6.70711ZM5.29284 11.2929C4.90231 11.6834 4.90231 12.3166 5.29284 12.7071C5.68336 13.0976 6.31653 13.0976 6.70705 12.7071L5.29284 11.2929ZM6.70717 5.29289C6.31665 4.90237 5.68348 4.90237 5.29296 5.29289C4.90243 5.68342 4.90243 6.31658 5.29296 6.70711L6.70717 5.29289ZM11.293 12.7071C11.6835 13.0976 12.3166 13.0976 12.7072 12.7071C13.0977 12.3166 13.0977 11.6834 12.7072 11.2929L11.293 12.7071ZM11.2928 5.29289L5.29284 11.2929L6.70705 12.7071L12.707 6.70711L11.2928 5.29289ZM5.29296 6.70711L11.293 12.7071L12.7072 11.2929L6.70717 5.29289L5.29296 6.70711ZM5 2H13V0H5V2ZM16 5V13H18V5H16ZM13 16H5V18H13V16ZM2 13V5H0V13H2ZM5 16C3.34315 16 2 14.6569 2 13H0C0 15.7614 2.23858 18 5 18V16ZM16 13C16 14.6569 14.6569 16 13 16V18C15.7614 18 18 15.7614 18 13H16ZM13 2C14.6569 2 16 3.34315 16 5H18C18 2.23858 15.7614 0 13 0V2ZM5 0C2.23858 0 0 2.23858 0 5H2C2 3.34315 3.34315 2 5 2V0Z" fill="white"/>
</svg>
